<?xml version="1.0" encoding="utf-8"?>
<!-- Generator: Adobe Illustrator 21.1.0, SVG Export Plug-In . SVG Version: 6.00 Build 0)  -->
<svg version="1.1" id="Layer_1" xmlns="http://www.w3.org/2000/svg" xmlns:xlink="http://www.w3.org/1999/xlink" x="0px" y="0px"
	 viewBox="0 0 612 215.7" style="enable-background:new 0 0 612 215.7;" xml:space="preserve">
<style type="text/css">
	.st0{fill:#FF7800;}
</style>
<g>
	<g>
		<path class="st0" d="M141.2,208.5h-20.9c-6,0-10.8-1.9-14.6-5.7c-3.8-3.8-5.7-8.6-5.7-14.6v-81c0-9.5-2.9-16.5-8.6-20.9
			c-5.8-4.4-12.2-6.6-19.4-6.6c-7.2,0-13.5,2.2-19.1,6.6s-8.3,11.3-8.3,20.9v101.3H3v-93c0-27,7-45.1,21.2-54.2
			C38.3,52.2,53.9,47.2,71,46.4c17.5,0,33.6,4.6,48.3,13.7s22,27.6,22,55.4v93H141.2z"/>
		<path class="st0" d="M265.6,159.6h29.8c-4.4,16.7-12.7,29.4-25,38.1c-12.3,9.1-27.8,13.7-46.5,13.7c-22.6,0-40.3-7.3-53-22
			c-12.7-14.3-19.1-34.8-19.1-61.4c0-25.4,6.2-45.3,18.5-59.6c12.7-14.7,30.4-22,53-22c23.8,0,42.3,7.1,55.4,21.5
			c12.7,14.7,19.1,35.2,19.1,61.4c0,1.6,0,3,0,4.2s0,2,0,2.4c0,2-0.2,3.4-0.6,4.2H194.1c0.4,12.3,3.4,21.4,8.9,27.4
			c5.2,6.4,12.9,9.5,23.2,9.5c6.7,0,12.5-1.4,17.3-4.2c3-1.9,3.9-2.9,5.4-4.4c1.6-2,3.2-3.8,5.7-5.7
			C257.2,160.6,260.8,159.6,265.6,159.6z M194.1,113.1h60.8c-0.8-10.7-3.6-18.7-8.3-23.8c-5.2-5.6-12.5-8.3-22-8.3
			c-8.7,0-15.9,2.8-21.5,8.3C197.5,94.9,194.5,102.8,194.1,113.1z"/>
		<path class="st0" d="M416.8,2.9h20.3c5.6,0,10.3,2.1,14.3,6.3s6,8.8,6,14v116.2c0,28.2-8.1,47.3-24.4,57.2s-34,14.9-53,14.9
			c-10.3,0-20.5-1.7-30.4-5.1c-9.9-3.4-17.9-8.8-23.8-16.4c-11.5-14.7-17.3-34.8-17.3-60.2c0-25,5.8-45.1,17.3-60.2
			c11.9-15.5,27.2-23.2,45.9-23.2c9.9,0,18.7,2,26.2,6c7.9,4.8,14.3,10.9,19.1,18.5v-68H416.8z M348.9,128c0,15.9,3,28,8.9,36.3
			c6,8.3,14.5,12.5,25.6,12.5c10.7,0,19.1-4.2,25-12.5c5.6-8.3,8.3-20.5,8.3-36.3c0-14.3-3-25.6-8.9-34
			c-6.4-7.9-14.9-11.9-25.6-11.9c-10.3,0-18.5,4.2-24.4,12.5C351.9,102.6,348.9,113.7,348.9,128z"/>
		<path class="st0" d="M597.9,129.2c-8-6.8-22-12.7-42.3-17.9c-1.5-0.3-8.4-1.7-11.3-2.4c-20.7-4.4-31-9.7-31-16.1
			c0-4.8,1.8-8.3,5.4-10.7c4-2.4,9.9-3.6,17.9-3.6c8.3,0,14.9,1.8,19.7,5.4c1.9,1.4,3.1,2.3,6.2,6.9c3.1,4.6,8.3,8,15.8,8h25.6
			c-0.8-15.9-7-28.8-18.5-38.7C573,51,556.5,46.4,535.9,46.4c-19.1,0-34.6,4.6-46.5,13.7c-11.5,9.9-17.3,22.4-17.3,37.5
			c0,11.9,4,21.5,11.9,28.6c7.1,7.2,21.2,13.3,42.3,18.5c4.5,1.2,8.1,2,16.1,3.6c16.7,3.6,25,8.9,25,16.1c0,4.8-2.4,8.5-7.2,11.3
			c-5.2,2.8-11.3,4.2-18.5,4.2c-9.9,0-17.9-2-23.8-6c-5.6-4-8.5-9.9-8.9-17.9h-40.5v1.8c0,17.5,5.8,30.8,17.3,39.9
			c11.1,9.1,28,13.7,50.6,13.7c23.8,0,41.7-4.4,53.6-13.1c12.7-9.5,19.1-23,19.1-40.5C609.2,145.9,605.4,136.4,597.9,129.2z"/>
		<path class="st0" d="M557.7,87.7"/>
	</g>
</g>
</svg>
