<?xml version="1.0" encoding="UTF-8" standalone="no"?>
<!-- Generator: Adobe Illustrator 17.0.0, SVG Export Plug-In . SVG Version: 6.00 Build 0)  -->

<svg
   xmlns:dc="http://purl.org/dc/elements/1.1/"
   xmlns:cc="http://creativecommons.org/ns#"
   xmlns:rdf="http://www.w3.org/1999/02/22-rdf-syntax-ns#"
   xmlns:svg="http://www.w3.org/2000/svg"
   xmlns="http://www.w3.org/2000/svg"
   xmlns:sodipodi="http://sodipodi.sourceforge.net/DTD/sodipodi-0.dtd"
   xmlns:inkscape="http://www.inkscape.org/namespaces/inkscape"
   version="1.1"
   id="Layer_1"
   x="0px"
   y="0px"
   width="889.38251"
   height="286.34283"
   viewBox="0 0 889.38251 286.34283"
   xml:space="preserve"
   inkscape:version="0.48.5 r10040"
   sodipodi:docname="SAVVY_Logo_Beta_Version_V3-01.svg"><metadata
     id="metadata3103"><rdf:RDF><cc:Work
         rdf:about=""><dc:format>image/svg+xml</dc:format><dc:type
           rdf:resource="http://purl.org/dc/dcmitype/StillImage" /></cc:Work></rdf:RDF></metadata><defs
     id="defs3101" /><sodipodi:namedview
     pagecolor="#ffffff"
     bordercolor="#666666"
     borderopacity="1"
     objecttolerance="10"
     gridtolerance="10"
     guidetolerance="10"
     inkscape:pageopacity="0"
     inkscape:pageshadow="2"
     inkscape:window-width="1920"
     inkscape:window-height="1032"
     id="namedview3099"
     showgrid="false"
     fit-margin-top="0"
     fit-margin-left="0"
     fit-margin-right="0"
     fit-margin-bottom="0"
     inkscape:zoom="1.7730061"
     inkscape:cx="448.61905"
     inkscape:cy="148.84284"
     inkscape:window-x="1920"
     inkscape:window-y="0"
     inkscape:window-maximized="1"
     inkscape:current-layer="Layer_1" /><style
     type="text/css"
     id="style3065">
	.st0{fill:#14AFF4;}
	.st1{fill:#F72C25;}
	.st2{fill:#FFFFFF;}
	.st3{fill:#414042;}
</style><g
     id="g3067"
     transform="translate(-40.380952,-32)"><path
       class="st0"
       d="m 187.4,209.8 c -6.5,25.5 -30.2,47.3 -82.4,47.3 -33.3,0 -53.8,-12.4 -61.6,-17.4 -2.8,-1.9 -3.7,-4.4 -2.5,-9 0.9,-4.4 8.7,-33 9.3,-35.1 0.6,-1.9 3.7,-4.4 7.2,-2.8 11.8,5.3 25.8,11.8 37.3,12.7 14.6,0.6 26.1,-3.4 26.4,-12.4 0,-9 -8.7,-13.4 -33.9,-30.8 C 60.8,144.3 37.5,119.4 42.1,82.1 47.7,35.7 94.4,32 119.3,32 c 22.1,0 43.8,5.6 54.4,9.3 4.7,1.2 7.2,4.7 6.2,9 -0.6,3.7 -6.2,32.3 -6.8,36.1 -0.9,3.7 -3.1,6.8 -9,4.7 -10.3,-3.7 -23.3,-8.4 -38.6,-8.4 -5.9,0 -12.7,2.5 -14.3,6.5 -4,10.6 7.2,19 41,43.2 33.9,23.9 42,50.7 35.2,77.4 z"
       id="path3069"
       inkscape:connector-curvature="0"
       style="fill:#14aff4" /><path
       class="st0"
       d="m 364.9,145.1 v 100.4 c 0,4.4 -3.4,7.8 -7.8,7.8 H 330 311.3 c -4.4,0 -7.8,-3.4 -7.8,-7.8 v -6.2 c -11.2,12.1 -33,17.7 -50.4,17.7 -9.6,0 -49.7,-5 -49.7,-46.6 0,-35.8 25.8,-52.9 49.7,-56.6 15.5,-2.2 37.6,-3.1 50.4,-3.7 -0.3,-9.3 -3.7,-20.8 -23.9,-20.8 -18.7,0 -36.4,6.8 -45.4,10.6 -3.4,1.2 -6.5,0 -7.8,-2.8 -1.6,-3.1 -10.6,-25.5 -11.5,-28 -0.9,-2.5 -0.9,-6.8 2.8,-8.4 10.6,-5.6 36.7,-16.8 69,-16.8 36.7,0 73.4,15.5 77.7,53.8 0.5,2.5 0.5,4.9 0.5,7.4 z m -61.3,54.1 v -19 c 0,0 -23.6,-1.2 -33,6.2 -11.8,9 -8.1,28.9 11.8,28.9 19.7,0.1 21.2,-16.1 21.2,-16.1 z"
       id="path3071"
       inkscape:connector-curvature="0"
       style="fill:#14aff4" /><path
       class="st0"
       d="m 548.6,99.1 c -2.8,7.5 -51,141.2 -53.5,146.4 -2.5,5.6 -4.4,7.8 -9.9,7.8 h -48.5 c -5.6,0 -7.5,-2.2 -9.9,-7.8 -2.5,-5.3 -50.7,-139 -53.5,-146.4 -2.5,-7.2 0.3,-10.9 5.6,-10.9 4,0 45.7,0 45.7,0 9.3,0 10.9,2.8 14,10.9 1.6,4.4 22.4,88.6 22.4,88.6 0,0 20.8,-84.3 22.4,-88.6 3.1,-8.1 4.7,-10.9 14,-10.9 0,0 41.7,0 45.7,0 5.2,0 8,3.8 5.5,10.9 z"
       id="path3073"
       inkscape:connector-curvature="0"
       style="fill:#14aff4" /><path
       class="st0"
       d="m 928.9,98.5 c -2.2,5.9 -51.3,145.8 -54.7,154.5 -27.4,69.3 -79,65.3 -97,65.3 -4.4,0 -7.5,-3.4 -7.5,-8.1 v -40.1 c 0,-4.7 3.4,-8.4 7.5,-8.4 0,0 34.2,1.2 38.2,-18.3 -16.2,-38.9 -57.8,-139.3 -59.7,-144 -2.8,-6.8 -1.2,-11.2 6.2,-11.2 7.8,0 43.2,0 43.2,0 7.5,0 8.7,2.2 11.5,8.1 1.2,2.5 27.4,78.4 27.4,78.4 0,0 21.8,-76.5 22.7,-78.4 2.8,-5.9 4,-8.1 11.5,-8.1 0,0 36.1,0 43.8,0 7.2,0 9.1,4.1 6.9,10.3 z"
       id="path3075"
       inkscape:connector-curvature="0"
       style="fill:#14aff4" /></g><g
     id="g3077"
     transform="translate(-40.380952,-32)"><g
       id="g3079"><path
         class="st0"
         d="m 681.3,130.9 c -5.3,-5.7 -8.6,-12.5 -10.1,-20.3 -6.2,24.1 -19.3,77.1 -19.3,77.1 0,0 -20.8,-84.4 -22.4,-88.8 -3.1,-8.1 -4.7,-11 -14,-11 0,0 -41.7,0 -45.7,0 -5.3,0 -8.1,3.9 -5.6,11 2.8,7.5 51,141 53.5,146.3 2.5,5.6 4.4,7.6 9.9,7.6 h 48.5 c 5.6,0 7.5,-2 9.9,-7.6 1.5,-3.3 20.5,-55.3 35.4,-96.5 -8.5,-0.9 -27.9,-4.5 -40.1,-17.8 z"
         id="path3081"
         inkscape:connector-curvature="0"
         style="fill:#14aff4" /><path
         class="st0"
         d="m 734,87.9 h -42.7 c -1.9,0 -3,0 -3,0 -0.8,0 -2.5,0.2 -3.8,0.4 -0.4,0 -0.9,0.1 -1.2,0.2 0,0 0,0 0,0 0,0 0,0 0,0 -5.5,0.9 -6.4,4 -8.9,10.6 0,0.1 -0.1,0.3 -0.2,0.6 -0.3,11.6 3.1,21.3 10,28.9 11.8,12.8 31.1,16.1 38.6,16.9 8.7,-24 15.8,-43.8 16.8,-46.5 2.4,-7.2 -0.4,-11.1 -5.6,-11.1 z m -15.3,44.6 c -1.4,-2.6 -2.9,-5.1 -4.3,-7.5 1.5,2.3 2.9,4.8 4.3,7.5 l 1.7,3.4 -1.7,-3.4 z"
         id="path3083"
         inkscape:connector-curvature="0"
         style="fill:#14aff4" /></g><path
       class="st1"
       d="M 740.4,114.1 716,136 l -3.9,21.6 15.1,29 171.4,31.2 13.2,-72.5 -171.4,-31.2 z m -13.6,39.2 c -2.7,-0.5 -4.4,-3.2 -3.9,-6 0.5,-2.8 3.1,-4.7 5.8,-4.2 2.7,0.5 4.4,3.2 3.9,6 -0.6,2.8 -3.1,4.6 -5.8,4.2 z"
       id="path3085"
       inkscape:connector-curvature="0"
       style="fill:#f72c25" /><g
       id="g3087"><path
         class="st2"
         d="m 767.2,174.4 -15.9,-2.9 6.6,-36.2 14.1,2.6 c 2.5,0.4 4.5,1.1 6.2,2 1.7,0.9 2.9,1.9 3.6,3.1 1.3,2.2 1.7,4.4 1.3,6.8 -0.5,2.8 -1.8,4.8 -3.9,5.8 -0.7,0.4 -1.2,0.6 -1.5,0.7 -0.3,0.1 -0.7,0.2 -1.4,0.4 2.2,0.9 3.8,2.2 4.8,4 1,1.8 1.4,3.8 1,6.1 -0.5,2.5 -1.7,4.6 -3.8,6.2 -2.4,1.9 -6.1,2.3 -11.1,1.4 z m -6.5,-8.2 5.5,1 c 2.3,0.4 4.1,0.5 5.4,0.1 1.3,-0.4 2,-1.4 2.3,-3.1 0.3,-1.7 -0.1,-2.9 -1.2,-3.7 -1.1,-0.8 -3,-1.4 -5.7,-1.9 l -4.8,-0.9 -1.5,8.5 z m 2.7,-14.7 3.8,0.7 c 2.2,0.4 4,0.5 5.1,0.2 1.2,-0.3 1.9,-1.2 2.2,-2.8 0.3,-1.6 0,-2.8 -0.9,-3.5 -0.9,-0.7 -2.6,-1.3 -4.9,-1.7 l -3.9,-0.7 -1.4,7.8 z"
         id="path3089"
         inkscape:connector-curvature="0"
         style="fill:#ffffff" /><path
         class="st2"
         d="m 819.3,146.5 -1.3,7.2 -18,-3.3 -1.4,7.5 16.2,3 -1.3,6.9 -16.2,-3 -1.4,7.5 18.6,3.4 -1.3,7.1 -26.7,-4.9 6.6,-36.2 26.2,4.8 z"
         id="path3091"
         inkscape:connector-curvature="0"
         style="fill:#ffffff" /><path
         class="st2"
         d="m 840.6,157.6 -5.3,29.2 -8.1,-1.5 5.3,-29.2 -10.3,-1.9 1.3,-7 28.6,5.2 -1.3,7 -10.2,-1.8 z"
         id="path3093"
         inkscape:connector-curvature="0"
         style="fill:#ffffff" /><path
         class="st2"
         d="m 874.1,193.9 -1.9,-8.4 -15.2,-2.8 -4.8,7.2 -8.6,-1.6 22.2,-33.4 7.8,1.4 9,39.1 -8.5,-1.5 z m -6.3,-27.4 -6.5,9.7 9.1,1.7 -2.6,-11.4 z"
         id="path3095"
         inkscape:connector-curvature="0"
         style="fill:#ffffff" /></g><path
       class="st3"
       d="m 727.2,146.3 c -0.3,-0.4 -0.8,-0.5 -1.4,-0.5 -0.1,0 -1.2,0 -3.1,-0.2 0,0 0,0 0,0 -7.5,-0.8 -26.8,-4.1 -38.6,-16.9 -6.9,-7.5 -10.3,-17.2 -10,-28.9 0,0 0,0.1 0,0.1 0,0 0,-0.1 0,-0.1 0.1,-3.3 -1,-14.1 5.6,-13 0,0 3.5,0.4 5.4,1.5 0.9,-0.1 2,-0.3 3.1,-0.3 0,0 1.1,0 3,0 -5,-3.8 -11.7,-4.8 -11.7,-4.8 -12.7,-1.1 -9.7,20.9 -8.4,27.5 0,0 0,0 0,0 0,0 0,0 0,0.1 1.5,7.8 4.9,14.6 10.1,20.3 12.3,13.3 31.7,17 40.2,18 0,-0.1 0.1,-0.1 0.1,-0.2 2.5,0.3 4.1,0.2 4.2,0.2 h 0.1 c 1,0 1.8,-0.5 1.9,-1.5 0,-0.7 -0.2,-1 -0.5,-1.3 z"
       id="path3097"
       inkscape:connector-curvature="0"
       style="fill:#414042" /></g></svg>